# This file uses centimeters as units for non-parametric coordinates.

mtllib PuertaGarage.mtl
g default
v -24.769987 0.190578 7.282571
v -9.867225 0.190578 7.282571
v -24.769987 8.782614 7.282571
v -9.867225 8.782614 7.282571
v -24.769987 8.782614 6.807866
v -9.867225 8.782614 6.807866
v -24.769987 0.190578 6.807866
v -9.867225 0.190578 6.807866
vt 0.003143 0.000000
vt 0.989630 0.000000
vt 0.003143 0.999776
vt 0.989630 0.999776
vt 0.375000 0.999776
vt 0.625000 0.999776
vt 0.375000 0.119517
vt 0.625000 0.119517
vt 0.375000 0.119517
vt 0.985666 0.119517
vt 0.375000 0.995729
vt 0.985666 0.995729
vt 0.375000 0.995729
vt 0.985666 0.995729
vt 0.375000 1.000000
vt 0.625000 1.000000
vt 0.989630 0.000000
vt 1.235666 0.000000
vt 0.989630 0.250000
vt 1.235666 0.250000
vt 0.125000 0.000000
vt 0.003143 0.000000
vt 0.125000 0.250000
vt 0.003143 0.250000
vn 0.000000 0.000000 1.000000
vn 0.000000 0.000000 1.000000
vn 0.000000 0.000000 1.000000
vn 0.000000 0.000000 1.000000
vn 0.000000 1.000000 0.000000
vn 0.000000 1.000000 0.000000
vn 0.000000 1.000000 0.000000
vn 0.000000 1.000000 0.000000
vn 0.000000 0.000000 -1.000000
vn 0.000000 0.000000 -1.000000
vn 0.000000 0.000000 -1.000000
vn 0.000000 0.000000 -1.000000
vn 0.000000 -1.000000 -0.000000
vn 0.000000 -1.000000 -0.000000
vn 0.000000 -1.000000 -0.000000
vn 0.000000 -1.000000 -0.000000
vn 1.000000 0.000000 0.000000
vn 1.000000 0.000000 0.000000
vn 1.000000 0.000000 0.000000
vn 1.000000 0.000000 0.000000
vn -1.000000 0.000000 0.000000
vn -1.000000 0.000000 0.000000
vn -1.000000 0.000000 0.000000
vn -1.000000 0.000000 0.000000
s 1
g polySurface3 polySurface2 pCube21
usemtl lambert2SG
f 1/1/1 2/2/2 3/3/3
f 3/3/3 2/2/2 4/4/4
s 2
f 3/5/5 4/6/6 5/7/7
f 5/7/7 4/6/6 6/8/8
s 3
f 5/9/9 6/10/10 7/11/11
f 7/11/11 6/10/10 8/12/12
s 4
f 7/13/13 8/14/14 1/15/15
f 1/15/15 8/14/14 2/16/16
s 5
f 2/17/17 8/18/18 4/19/19
f 4/19/19 8/18/18 6/20/20
s 6
f 7/21/21 1/22/22 5/23/23
f 5/23/23 1/22/22 3/24/24
