# This file uses centimeters as units for non-parametric coordinates.

mtllib PuertaPrincipal.mtl
g default
v 7.173960 0.662726 15.288397
v 10.220147 0.662726 15.288398
v 7.173960 6.484890 15.288397
v 10.266654 7.741454 15.288397
v 7.173960 6.484890 14.813693
v 10.266654 7.741454 14.813693
v 7.173960 0.662726 14.813693
v 10.220147 0.662726 14.813693
vt -0.047823 -0.380466
vt 1.088861 -0.380466
vt -0.047823 1.364432
vt 1.088861 1.364432
vt 0.375000 0.250000
vt 0.625000 0.250000
vt 0.375000 0.500000
vt 0.625000 0.500000
vt 0.625000 0.750000
vt 0.375000 0.750000
vt 0.375000 1.000000
vt 0.625000 1.000000
vt 0.625000 0.000000
vt 0.875000 0.000000
vt 0.625000 0.250000
vt 0.875000 0.250000
vt 0.125000 0.000000
vt 0.375000 0.000000
vt 0.125000 0.250000
vt 0.375000 0.250000
vn 0.000000 0.000000 1.000000
vn 0.000000 0.000000 1.000000
vn 0.000000 0.000000 1.000000
vn 0.000000 0.000000 1.000000
vn -0.376418 0.926450 0.000000
vn -0.376417 0.926450 0.000000
vn -0.376418 0.926450 0.000000
vn -0.376416 0.926451 0.000000
vn -0.000000 0.000000 -1.000000
vn -0.000000 0.000000 -1.000000
vn -0.000000 0.000000 -1.000000
vn 0.000000 0.000000 -1.000000
vn 0.000000 -1.000000 0.000000
vn 0.000000 -1.000000 0.000000
vn 0.000000 -1.000000 0.000000
vn 0.000000 -1.000000 0.000000
vn 0.999978 -0.006570 0.000000
vn 0.999978 -0.006570 0.000000
vn 0.999978 -0.006570 0.000000
vn 0.999978 -0.006570 0.000000
vn -1.000000 0.000000 0.000000
vn -1.000000 0.000000 0.000000
vn -1.000000 0.000000 0.000000
vn -1.000000 0.000000 0.000000
s 1
g polySurface1 pCube21
usemtl lambert8SG
f 1/1/1 2/2/2 3/3/3
f 3/3/3 2/2/2 4/4/4
s 2
f 3/5/5 4/6/6 5/7/7
f 5/7/7 4/6/6 6/8/8
s 3
f 6/8/9 8/9/10 5/7/11
f 5/7/11 8/9/10 7/10/12
s 4
f 7/10/13 8/9/14 1/11/15
f 1/11/15 8/9/14 2/12/16
s 5
f 2/13/17 8/14/18 4/15/19
f 4/15/19 8/14/18 6/16/20
s 6
f 7/17/21 1/18/22 5/19/23
f 5/19/23 1/18/22 3/20/24
