# This file uses centimeters as units for non-parametric coordinates.

mtllib PuertaPrincipal.mtl
g default
v 0.023828 -3.237872 0.302140
v 3.070014 -3.237872 0.302141
v 0.023828 2.584292 0.302140
v 3.116521 3.840856 0.302140
v 0.023828 2.584292 -0.172564
v 3.116521 3.840856 -0.172564
v 0.023828 -3.237872 -0.172564
v 3.070014 -3.237872 -0.172564
vt -0.047823 -0.380466
vt 1.088861 -0.380466
vt -0.047823 1.364432
vt 1.088861 1.364432
vt 0.375000 0.250000
vt 0.625000 0.250000
vt 0.375000 0.500000
vt 0.625000 0.500000
vt 0.625000 0.750000
vt 0.375000 0.750000
vt 0.375000 1.000000
vt 0.625000 1.000000
vt 0.625000 0.000000
vt 0.875000 0.000000
vt 0.625000 0.250000
vt 0.875000 0.250000
vt 0.125000 0.000000
vt 0.375000 0.000000
vt 0.125000 0.250000
vt 0.375000 0.250000
vn 0.000000 0.000000 1.000000
vn 0.000000 0.000000 1.000000
vn 0.000000 0.000000 1.000000
vn 0.000000 0.000000 1.000000
vn 0.000000 0.000000 1.000000
vn 0.000000 0.000000 1.000000
vn -0.376418 0.926450 0.000000
vn -0.376417 0.926450 0.000000
vn -0.376418 0.926450 0.000000
vn -0.376418 0.926450 0.000000
vn -0.376417 0.926450 0.000000
vn -0.376416 0.926451 0.000000
vn 0.000000 0.000000 -1.000000
vn 0.000000 0.000000 -1.000000
vn 0.000000 0.000000 -1.000000
vn 0.000000 0.000000 -1.000000
vn 0.000000 0.000000 -1.000000
vn 0.000000 0.000000 -1.000000
vn 0.000000 -1.000000 0.000000
vn 0.000000 -1.000000 0.000000
vn 0.000000 -1.000000 0.000000
vn 0.000000 -1.000000 0.000000
vn 0.000000 -1.000000 0.000000
vn 0.000000 -1.000000 0.000000
vn 0.999978 -0.006570 0.000000
vn 0.999978 -0.006570 0.000000
vn 0.999978 -0.006570 0.000000
vn 0.999978 -0.006570 0.000000
vn 0.999978 -0.006570 0.000000
vn 0.999978 -0.006570 0.000000
vn -1.000000 0.000000 0.000000
vn -1.000000 0.000000 0.000000
vn -1.000000 0.000000 0.000000
vn -1.000000 0.000000 0.000000
vn -1.000000 0.000000 0.000000
vn -1.000000 0.000000 0.000000
s off
g polySurface1pCube21
usemtl lambert9SG
f 1/1/1 2/2/2 3/3/3
f 3/3/4 2/2/5 4/4/6
f 3/5/7 4/6/8 5/7/9
f 5/7/10 4/6/11 6/8/12
f 6/8/13 8/9/14 5/7/15
f 5/7/16 8/9/17 7/10/18
f 7/10/19 8/9/20 1/11/21
f 1/11/22 8/9/23 2/12/24
f 2/13/25 8/14/26 4/15/27
f 4/15/28 8/14/29 6/16/30
f 7/17/31 1/18/32 5/19/33
f 5/19/34 1/18/35 3/20/36
g default
v 0.023828 -3.237872 0.302140
v 3.070014 -3.237872 0.302141
v 0.023828 2.584292 0.302140
v 3.116521 3.840856 0.302140
v 0.023828 2.584292 -0.172564
v 3.116521 3.840856 -0.172564
v 0.023828 -3.237872 -0.172564
v 3.070014 -3.237872 -0.172564
vt -0.047823 -0.380466
vt 1.088861 -0.380466
vt -0.047823 1.364432
vt 1.088861 1.364432
vt 0.375000 0.250000
vt 0.625000 0.250000
vt 0.375000 0.500000
vt 0.625000 0.500000
vt 0.625000 0.750000
vt 0.375000 0.750000
vt 0.375000 1.000000
vt 0.625000 1.000000
vt 0.625000 0.000000
vt 0.875000 0.000000
vt 0.625000 0.250000
vt 0.875000 0.250000
vt 0.125000 0.000000
vt 0.375000 0.000000
vt 0.125000 0.250000
vt 0.375000 0.250000
vn 0.000000 0.000000 1.000000
vn 0.000000 0.000000 1.000000
vn 0.000000 0.000000 1.000000
vn 0.000000 0.000000 1.000000
vn 0.000000 0.000000 1.000000
vn 0.000000 0.000000 1.000000
vn -0.376418 0.926450 0.000000
vn -0.376417 0.926450 0.000000
vn -0.376418 0.926450 0.000000
vn -0.376418 0.926450 0.000000
vn -0.376417 0.926450 0.000000
vn -0.376416 0.926451 0.000000
vn 0.000000 0.000000 -1.000000
vn 0.000000 0.000000 -1.000000
vn 0.000000 0.000000 -1.000000
vn 0.000000 0.000000 -1.000000
vn 0.000000 0.000000 -1.000000
vn 0.000000 0.000000 -1.000000
vn 0.000000 -1.000000 0.000000
vn 0.000000 -1.000000 0.000000
vn 0.000000 -1.000000 0.000000
vn 0.000000 -1.000000 0.000000
vn 0.000000 -1.000000 0.000000
vn 0.000000 -1.000000 0.000000
vn 0.999978 -0.006570 0.000000
vn 0.999978 -0.006570 0.000000
vn 0.999978 -0.006570 0.000000
vn 0.999978 -0.006570 0.000000
vn 0.999978 -0.006570 0.000000
vn 0.999978 -0.006570 0.000000
vn -1.000000 0.000000 0.000000
vn -1.000000 0.000000 0.000000
vn -1.000000 0.000000 0.000000
vn -1.000000 0.000000 0.000000
vn -1.000000 0.000000 0.000000
vn -1.000000 0.000000 0.000000
s off
g polySurface1pCube21
f 9/21/37 10/22/38 11/23/39
f 11/23/40 10/22/41 12/24/42
f 11/25/43 12/26/44 13/27/45
f 13/27/46 12/26/47 14/28/48
f 14/28/49 16/29/50 13/27/51
f 13/27/52 16/29/53 15/30/54
f 15/30/55 16/29/56 9/31/57
f 9/31/58 16/29/59 10/32/60
f 10/33/61 16/34/62 12/35/63
f 12/35/64 16/34/65 14/36/66
f 15/37/67 9/38/68 13/39/69
f 13/39/70 9/38/71 11/40/72
