# This file uses centimeters as units for non-parametric coordinates.

mtllib PuertaGarage.mtl
g default
v -7.773554 -8.697105 0.039963
v 7.129209 -8.697105 0.039963
v -7.773554 -0.105070 0.039963
v 7.129209 -0.105070 0.039963
v -7.773554 -0.105070 -0.434741
v 7.129209 -0.105070 -0.434741
v -7.773554 -8.697105 -0.434741
v 7.129209 -8.697105 -0.434741
vt 0.003143 0.000000
vt 0.989630 0.000000
vt 0.003143 0.999776
vt 0.989630 0.999776
vt 0.375000 0.999776
vt 0.625000 0.999776
vt 0.375000 0.119517
vt 0.625000 0.119517
vt 0.375000 0.119517
vt 0.985666 0.119517
vt 0.375000 0.995729
vt 0.985666 0.995729
vt 0.375000 0.995729
vt 0.985666 0.995729
vt 0.375000 1.000000
vt 0.625000 1.000000
vt 0.989630 0.000000
vt 1.235666 0.000000
vt 0.989630 0.250000
vt 1.235666 0.250000
vt 0.125000 0.000000
vt 0.003143 0.000000
vt 0.125000 0.250000
vt 0.003143 0.250000
vn 0.000000 0.000000 1.000000
vn 0.000000 0.000000 1.000000
vn 0.000000 0.000000 1.000000
vn 0.000000 0.000000 1.000000
vn 0.000000 0.000000 1.000000
vn 0.000000 0.000000 1.000000
vn 0.000000 1.000000 0.000000
vn 0.000000 1.000000 0.000000
vn 0.000000 1.000000 0.000000
vn 0.000000 1.000000 0.000000
vn 0.000000 1.000000 0.000000
vn 0.000000 1.000000 0.000000
vn 0.000000 0.000000 -1.000000
vn 0.000000 0.000000 -1.000000
vn 0.000000 0.000000 -1.000000
vn 0.000000 0.000000 -1.000000
vn 0.000000 0.000000 -1.000000
vn 0.000000 0.000000 -1.000000
vn 0.000000 -1.000000 0.000000
vn 0.000000 -1.000000 0.000000
vn 0.000000 -1.000000 0.000000
vn 0.000000 -1.000000 0.000000
vn 0.000000 -1.000000 0.000000
vn 0.000000 -1.000000 0.000000
vn 1.000000 0.000000 0.000000
vn 1.000000 0.000000 0.000000
vn 1.000000 0.000000 0.000000
vn 1.000000 0.000000 0.000000
vn 1.000000 0.000000 0.000000
vn 1.000000 0.000000 0.000000
vn -1.000000 0.000000 0.000000
vn -1.000000 0.000000 0.000000
vn -1.000000 0.000000 0.000000
vn -1.000000 0.000000 0.000000
vn -1.000000 0.000000 0.000000
vn -1.000000 0.000000 0.000000
s off
g polySurface3polySurface2pCube21
usemtl PuertaGarage_lambert2SG
f 1/1/1 2/2/2 3/3/3
f 3/3/4 2/2/5 4/4/6
f 3/5/7 4/6/8 5/7/9
f 5/7/10 4/6/11 6/8/12
f 5/9/13 6/10/14 7/11/15
f 7/11/16 6/10/17 8/12/18
f 7/13/19 8/14/20 1/15/21
f 1/15/22 8/14/23 2/16/24
f 2/17/25 8/18/26 4/19/27
f 4/19/28 8/18/29 6/20/30
f 7/21/31 1/22/32 5/23/33
f 5/23/34 1/22/35 3/24/36
