# This file uses centimeters as units for non-parametric coordinates.

mtllib BaseVentilador.mtl
g default
v 0.000000 -0.077345 -0.076978
v 0.000000 3.620665 -0.076978
v 0.015017 -0.077345 -0.075499
v 0.015017 3.620665 -0.075499
v 0.029459 -0.077345 -0.071119
v 0.029459 3.620665 -0.071119
v 0.042766 -0.077345 -0.064005
v 0.042766 3.620665 -0.064005
v 0.054432 -0.077345 -0.054432
v 0.054432 3.620665 -0.054432
v 0.064005 -0.077345 -0.042766
v 0.064005 3.620665 -0.042766
v 0.071119 -0.077345 -0.029459
v 0.071119 3.620665 -0.029459
v 0.075499 -0.077345 -0.015017
v 0.075499 3.620665 -0.015017
v 0.076978 -0.077345 0.000000
v 0.076978 3.620665 0.000000
v 0.075499 -0.077345 0.015017
v 0.075499 3.620665 0.015017
v 0.071119 -0.077345 0.029459
v 0.071119 3.620665 0.029459
v 0.064005 -0.077345 0.042766
v 0.064005 3.620665 0.042766
v 0.054432 -0.077345 0.054432
v 0.054432 3.620665 0.054432
v 0.042766 -0.077345 0.064005
v 0.042766 3.620665 0.064005
v 0.029459 -0.077345 0.071119
v 0.029459 3.620665 0.071119
v 0.015017 -0.077345 0.075499
v 0.015017 3.620665 0.075499
v 0.000000 -0.077345 0.076978
v 0.000000 3.620665 0.076978
v -0.015017 -0.077345 0.075499
v -0.015017 3.620665 0.075499
v -0.029459 -0.077345 0.071119
v -0.029459 3.620665 0.071119
v -0.042766 -0.077345 0.064005
v -0.042766 3.620665 0.064005
v -0.054432 -0.077345 0.054432
v -0.054432 3.620665 0.054432
v -0.064005 -0.077345 0.042766
v -0.064005 3.620665 0.042766
v -0.071119 -0.077345 0.029459
v -0.071119 3.620665 0.029459
v -0.075499 -0.077345 0.015017
v -0.075499 3.620665 0.015017
v -0.076978 -0.077345 0.000000
v -0.076978 3.620665 0.000000
v -0.075499 -0.077345 -0.015017
v -0.075499 3.620665 -0.015017
v -0.071119 -0.077345 -0.029459
v -0.071119 3.620665 -0.029459
v -0.064005 -0.077345 -0.042766
v -0.064005 3.620665 -0.042766
v -0.054432 -0.077345 -0.054432
v -0.054432 3.620665 -0.054432
v -0.042766 -0.077345 -0.064005
v -0.042766 3.620665 -0.064005
v -0.029459 -0.077345 -0.071119
v -0.029459 3.620665 -0.071119
v -0.015017 -0.077345 -0.075499
v -0.015017 3.620665 -0.075499
vt 0.948000 0.031000
vt 0.536000 0.966200
vt 0.529300 0.965800
vt 0.953000 0.030600
vt 0.522100 0.965500
vt 0.961100 0.030400
vt 0.514600 0.965300
vt 0.972400 0.030100
vt 0.506900 0.965200
vt 0.986500 0.030000
vt 0.499000 0.965200
vt 1.001900 0.030000
vt 0.001900 0.030000
vt 0.491200 0.965200
vt 0.017200 0.030000
vt 0.483500 0.965400
vt 0.030600 0.030200
vt 0.476100 0.965600
vt 0.041200 0.030400
vt 0.469000 0.965900
vt 0.048500 0.030700
vt 0.462500 0.966300
vt 0.052800 0.031100
vt 0.456700 0.966700
vt 0.054300 0.031500
vt 0.451800 0.967200
vt 0.053600 0.032000
vt 0.448200 0.967600
vt 0.051000 0.032500
vt 0.446100 0.968100
vt 0.047100 0.032900
vt 0.445900 0.968600
vt 0.042000 0.033400
vt 0.448000 0.969000
vt 0.036000 0.033800
vt 0.453000 0.969400
vt 0.029300 0.034200
vt 0.461100 0.969600
vt 0.022100 0.034500
vt 0.472400 0.969900
vt 0.014600 0.034700
vt 0.486500 0.970000
vt 0.006900 0.034800
vt 1.006900 0.034800
vt 1.486500 0.970000
vt 0.501900 0.970000
vt 0.999000 0.034800
vt 0.517200 0.970000
vt 0.991200 0.034800
vt 0.530600 0.969800
vt 0.983500 0.034600
vt 0.541200 0.969600
vt 0.976100 0.034400
vt 0.548500 0.969300
vt 0.969000 0.034100
vt 0.552800 0.968900
vt 0.962500 0.033700
vt 0.554300 0.968500
vt 0.956700 0.033300
vt 0.553600 0.968000
vt 0.951800 0.032800
vt 0.551000 0.967500
vt 0.948200 0.032400
vt 0.547100 0.967100
vt 0.946100 0.031900
vt 0.542000 0.966600
vt 0.945900 0.031400
vt 1.017200 0.030000
vt 1.030600 0.030200
vt 1.041200 0.030400
vt 1.048500 0.030700
vt 1.052800 0.031100
vt 1.054300 0.031500
vt 1.053600 0.032000
vt 1.051000 0.032500
vt 1.047100 0.032900
vt 1.042000 0.033400
vt 1.036000 0.033800
vt 1.029300 0.034200
vt 1.022100 0.034500
vt 1.014600 0.034700
vn 0.000000 -0.685692 -0.727892
vn 0.000000 0.685692 -0.727892
vn 0.142000 -0.685699 -0.713899
vn 0.142000 0.685699 -0.713899
vn 0.142000 -0.685699 -0.713899
vn 0.142000 0.685699 -0.713899
vn 0.278500 -0.685699 -0.672499
vn 0.278500 0.685699 -0.672499
vn 0.278500 -0.685699 -0.672499
vn 0.278500 0.685699 -0.672499
vn 0.404402 -0.685703 -0.605203
vn 0.404402 0.685703 -0.605203
vn 0.404402 -0.685703 -0.605203
vn 0.404402 0.685703 -0.605203
vn 0.514696 -0.685694 -0.514696
vn 0.514696 0.685694 -0.514696
vn 0.514696 -0.685694 -0.514696
vn 0.514696 0.685694 -0.514696
vn 0.605203 -0.685703 -0.404402
vn 0.605203 0.685703 -0.404402
vn 0.605203 -0.685703 -0.404402
vn 0.605203 0.685703 -0.404402
vn 0.672499 -0.685699 -0.278500
vn 0.672499 0.685699 -0.278500
vn 0.672499 -0.685699 -0.278500
vn 0.672499 0.685699 -0.278500
vn 0.713899 -0.685699 -0.142000
vn 0.713899 0.685699 -0.142000
vn 0.713899 -0.685699 -0.142000
vn 0.713899 0.685699 -0.142000
vn 0.727892 -0.685692 0.000000
vn 0.727892 0.685692 0.000000
vn 0.727892 -0.685692 0.000000
vn 0.727892 0.685692 0.000000
vn 0.713899 -0.685699 0.142000
vn 0.713899 0.685699 0.142000
vn 0.713899 -0.685699 0.142000
vn 0.713899 0.685699 0.142000
vn 0.672499 -0.685699 0.278500
vn 0.672499 0.685699 0.278500
vn 0.672499 -0.685699 0.278500
vn 0.672499 0.685699 0.278500
vn 0.605203 -0.685703 0.404402
vn 0.605203 0.685703 0.404402
vn 0.605203 -0.685703 0.404402
vn 0.605203 0.685703 0.404402
vn 0.514696 -0.685694 0.514696
vn 0.514696 0.685694 0.514696
vn 0.514696 -0.685694 0.514696
vn 0.514696 0.685694 0.514696
vn 0.404402 -0.685703 0.605203
vn 0.404402 0.685703 0.605203
vn 0.404402 -0.685703 0.605203
vn 0.404402 0.685703 0.605203
vn 0.278500 -0.685699 0.672499
vn 0.278500 0.685699 0.672499
vn 0.278500 -0.685699 0.672499
vn 0.278500 0.685699 0.672499
vn 0.142000 -0.685699 0.713899
vn 0.142000 0.685699 0.713899
vn 0.142000 -0.685699 0.713899
vn 0.142000 0.685699 0.713899
vn 0.000000 -0.685692 0.727892
vn 0.000000 0.685692 0.727892
vn 0.000000 -0.685692 0.727892
vn 0.000000 0.685692 0.727892
vn -0.142000 -0.685699 0.713899
vn -0.142000 0.685699 0.713899
vn -0.142000 -0.685699 0.713899
vn -0.142000 0.685699 0.713899
vn -0.278500 -0.685699 0.672499
vn -0.278500 0.685699 0.672499
vn -0.278500 -0.685699 0.672499
vn -0.278500 0.685699 0.672499
vn -0.404402 -0.685703 0.605203
vn -0.404402 0.685703 0.605203
vn -0.404402 -0.685703 0.605203
vn -0.404402 0.685703 0.605203
vn -0.514696 -0.685694 0.514696
vn -0.514696 0.685694 0.514696
vn -0.514696 -0.685694 0.514696
vn -0.514696 0.685694 0.514696
vn -0.605203 -0.685703 0.404402
vn -0.605203 0.685703 0.404402
vn -0.605203 -0.685703 0.404402
vn -0.605203 0.685703 0.404402
vn -0.672499 -0.685699 0.278500
vn -0.672499 0.685699 0.278500
vn -0.672499 -0.685699 0.278500
vn -0.672499 0.685699 0.278500
vn -0.713899 -0.685699 0.142000
vn -0.713899 0.685699 0.142000
vn -0.713899 -0.685699 0.142000
vn -0.713899 0.685699 0.142000
vn -0.727892 -0.685692 0.000000
vn -0.727892 0.685692 0.000000
vn -0.727892 -0.685692 0.000000
vn -0.727892 0.685692 0.000000
vn -0.713899 -0.685699 -0.142000
vn -0.713899 0.685699 -0.142000
vn -0.713899 -0.685699 -0.142000
vn -0.713899 0.685699 -0.142000
vn -0.672499 -0.685699 -0.278500
vn -0.672499 0.685699 -0.278500
vn -0.672499 -0.685699 -0.278500
vn -0.672499 0.685699 -0.278500
vn -0.605203 -0.685703 -0.404402
vn -0.605203 0.685703 -0.404402
vn -0.605203 -0.685703 -0.404402
vn -0.605203 0.685703 -0.404402
vn -0.514696 -0.685694 -0.514696
vn -0.514696 0.685694 -0.514696
vn -0.514696 -0.685694 -0.514696
vn -0.514696 0.685694 -0.514696
vn -0.404402 -0.685703 -0.605203
vn -0.404402 0.685703 -0.605203
vn -0.404402 -0.685703 -0.605203
vn -0.404402 0.685703 -0.605203
vn -0.278500 -0.685699 -0.672499
vn -0.278500 0.685699 -0.672499
vn 0.142000 0.685699 -0.713899
vn 0.000000 0.685692 -0.727892
vn 0.278500 0.685699 -0.672499
vn -0.142000 0.685699 -0.713899
vn -0.278500 0.685699 -0.672499
vn -0.404402 0.685703 -0.605203
vn -0.514696 0.685694 -0.514696
vn -0.605203 0.685703 -0.404402
vn -0.672499 0.685699 -0.278500
vn -0.713899 0.685699 -0.142000
vn -0.727892 0.685692 0.000000
vn -0.713899 0.685699 0.142000
vn -0.672499 0.685699 0.278500
vn -0.605203 0.685703 0.404402
vn -0.514696 0.685694 0.514696
vn -0.404402 0.685703 0.605203
vn -0.278500 0.685699 0.672499
vn -0.142000 0.685699 0.713899
vn 0.000000 0.685692 0.727892
vn 0.142000 0.685699 0.713899
vn 0.278500 0.685699 0.672499
vn 0.404402 0.685703 0.605203
vn 0.514696 0.685694 0.514696
vn 0.605203 0.685703 0.404402
vn 0.672499 0.685699 0.278500
vn 0.713899 0.685699 0.142000
vn 0.727892 0.685692 0.000000
vn 0.713899 0.685699 -0.142000
vn 0.672499 0.685699 -0.278500
vn 0.605203 0.685703 -0.404402
vn 0.514696 0.685694 -0.514696
vn 0.404402 0.685703 -0.605203
vn -0.278500 -0.685699 -0.672499
vn -0.278500 0.685699 -0.672499
vn -0.142000 -0.685699 -0.713899
vn -0.142000 0.685699 -0.713899
vn -0.142000 -0.685699 -0.713899
vn -0.142000 0.685699 -0.713899
vn 0.000000 -0.685692 -0.727892
vn 0.000000 0.685692 -0.727892
vn 0.000000 -0.685692 -0.727892
vn 0.142000 -0.685699 -0.713899
vn -0.142000 -0.685699 -0.713899
vn 0.278500 -0.685699 -0.672499
vn 0.404402 -0.685703 -0.605203
vn 0.514696 -0.685694 -0.514696
vn 0.605203 -0.685703 -0.404402
vn 0.672499 -0.685699 -0.278500
vn 0.713899 -0.685699 -0.142000
vn 0.727892 -0.685692 0.000000
vn 0.713899 -0.685699 0.142000
vn 0.672499 -0.685699 0.278500
vn 0.605203 -0.685703 0.404402
vn 0.514696 -0.685694 0.514696
vn 0.404402 -0.685703 0.605203
vn 0.278500 -0.685699 0.672499
vn 0.142000 -0.685699 0.713899
vn 0.000000 -0.685692 0.727892
vn -0.142000 -0.685699 0.713899
vn -0.278500 -0.685699 0.672499
vn -0.404402 -0.685703 0.605203
vn -0.514696 -0.685694 0.514696
vn -0.605203 -0.685703 0.404402
vn -0.672499 -0.685699 0.278500
vn -0.713899 -0.685699 0.142000
vn -0.727892 -0.685692 0.000000
vn -0.713899 -0.685699 -0.142000
vn -0.672499 -0.685699 -0.278500
vn -0.605203 -0.685703 -0.404402
vn -0.514696 -0.685694 -0.514696
vn -0.404402 -0.685703 -0.605203
vn -0.278500 -0.685699 -0.672499
s 1
g polySurface1 Mesh
usemtl lambert3SG
f 1/1/1 2/2/2 3/4/3
f 3/4/3 2/2/2 4/3/4
s 2
f 3/4/5 4/3/6 5/6/7
f 5/6/7 4/3/6 6/5/8
s 3
f 5/6/9 6/5/10 7/8/11
f 7/8/11 6/5/10 8/7/12
s 4
f 7/8/13 8/7/14 9/10/15
f 9/10/15 8/7/14 10/9/16
s 5
f 9/10/17 10/9/18 11/12/19
f 11/12/19 10/9/18 12/11/20
s 6
f 11/13/21 12/11/22 13/15/23
f 13/15/23 12/11/22 14/14/24
s 7
f 13/15/25 14/14/26 15/17/27
f 15/17/27 14/14/26 16/16/28
s 8
f 15/17/29 16/16/30 17/19/31
f 17/19/31 16/16/30 18/18/32
s 9
f 17/19/33 18/18/34 19/21/35
f 19/21/35 18/18/34 20/20/36
s 10
f 19/21/37 20/20/38 21/23/39
f 21/23/39 20/20/38 22/22/40
s 11
f 21/23/41 22/22/42 23/25/43
f 23/25/43 22/22/42 24/24/44
s 12
f 23/25/45 24/24/46 25/27/47
f 25/27/47 24/24/46 26/26/48
s 13
f 25/27/49 26/26/50 27/29/51
f 27/29/51 26/26/50 28/28/52
s 14
f 27/29/53 28/28/54 29/31/55
f 29/31/55 28/28/54 30/30/56
s 15
f 29/31/57 30/30/58 31/33/59
f 31/33/59 30/30/58 32/32/60
s 16
f 31/33/61 32/32/62 33/35/63
f 33/35/63 32/32/62 34/34/64
s 17
f 33/35/65 34/34/66 35/37/67
f 35/37/67 34/34/66 36/36/68
s 18
f 35/37/69 36/36/70 37/39/71
f 37/39/71 36/36/70 38/38/72
s 19
f 37/39/73 38/38/74 39/41/75
f 39/41/75 38/38/74 40/40/76
s 20
f 39/41/77 40/40/78 41/43/79
f 41/43/79 40/40/78 42/42/80
s 21
f 41/44/81 42/45/82 43/47/83
f 43/47/83 42/45/82 44/46/84
s 22
f 43/47/85 44/46/86 45/49/87
f 45/49/87 44/46/86 46/48/88
s 23
f 45/49/89 46/48/90 47/51/91
f 47/51/91 46/48/90 48/50/92
s 24
f 47/51/93 48/50/94 49/53/95
f 49/53/95 48/50/94 50/52/96
s 25
f 49/53/97 50/52/98 51/55/99
f 51/55/99 50/52/98 52/54/100
s 26
f 51/55/101 52/54/102 53/57/103
f 53/57/103 52/54/102 54/56/104
s 27
f 53/57/105 54/56/106 55/59/107
f 55/59/107 54/56/106 56/58/108
s 28
f 55/59/109 56/58/110 57/61/111
f 57/61/111 56/58/110 58/60/112
s 29
f 57/61/113 58/60/114 59/63/115
f 59/63/115 58/60/114 60/62/116
s 30
f 59/63/117 60/62/118 61/65/119
f 61/65/119 60/62/118 62/64/120
s 31
f 4/3/121 2/2/122 6/5/123
f 64/66/124 62/64/125 2/2/122
f 60/62/126 58/60/127 62/64/125
f 56/58/128 54/56/129 58/60/127
f 52/54/130 50/52/131 54/56/129
f 48/50/132 46/48/133 50/52/131
f 44/46/134 42/42/135 46/48/133
f 40/40/136 38/38/137 42/42/135
f 36/36/138 34/34/139 38/38/137
f 32/32/140 30/30/141 34/34/139
f 28/28/142 26/26/143 30/30/141
f 24/24/144 22/22/145 26/26/143
f 20/20/146 18/18/147 22/22/145
f 16/16/148 14/14/149 18/18/147
f 12/11/150 10/9/151 14/14/149
f 8/7/152 6/5/123 10/9/151
f 2/2/122 62/64/125 6/5/123
f 58/60/127 54/56/129 62/64/125
f 50/52/131 46/48/133 54/56/129
f 42/42/135 38/38/137 46/48/133
f 34/34/139 30/30/141 38/38/137
f 26/26/143 22/22/145 30/30/141
f 18/18/147 14/14/149 22/22/145
f 10/9/151 6/5/123 14/14/149
f 62/64/125 54/56/129 6/5/123
f 46/48/133 38/38/137 54/56/129
f 30/30/141 22/22/145 38/38/137
f 14/14/149 6/5/123 22/22/145
f 54/56/129 38/38/137 6/5/123
f 38/38/137 22/22/145 6/5/123
s 39
f 61/65/153 62/64/154 63/67/155
f 63/67/155 62/64/154 64/66/156
s 40
f 63/67/157 64/66/158 1/1/159
f 1/1/159 64/66/158 2/2/160
s 41
f 1/1/161 3/4/162 63/67/163
f 5/6/164 7/8/165 3/4/162
f 9/10/166 11/12/167 7/8/165
f 13/68/168 15/69/169 11/12/167
f 17/70/170 19/71/171 15/69/169
f 21/72/172 23/73/173 19/71/171
f 25/74/174 27/75/175 23/73/173
f 29/76/176 31/77/177 27/75/175
f 33/78/178 35/79/179 31/77/177
f 37/80/180 39/81/181 35/79/179
f 41/44/182 43/47/183 39/81/181
f 45/49/184 47/51/185 43/47/183
f 49/53/186 51/55/187 47/51/185
f 53/57/188 55/59/189 51/55/187
f 57/61/190 59/63/191 55/59/189
f 61/65/192 63/67/163 59/63/191
f 3/4/162 7/8/165 63/67/163
f 11/12/167 15/69/169 7/8/165
f 19/71/171 23/73/173 15/69/169
f 27/75/175 31/77/177 23/73/173
f 35/79/179 39/81/181 31/77/177
f 43/47/183 47/51/185 39/81/181
f 51/55/187 55/59/189 47/51/185
f 59/63/191 63/67/163 55/59/189
f 7/8/165 15/69/169 63/67/163
f 23/73/173 31/77/177 15/69/169
f 39/81/181 47/51/185 31/77/177
f 55/59/189 63/67/163 47/51/185
f 15/69/169 31/77/177 63/67/163
f 31/77/177 47/51/185 63/67/163
